<?xml version="1.0" encoding="utf-8"?>
<!-- Generator: Adobe Illustrator 15.1.0, SVG Export Plug-In . SVG Version: 6.00 Build 0)  -->
<!DOCTYPE svg PUBLIC "-//W3C//DTD SVG 1.1//EN" "http://www.w3.org/Graphics/SVG/1.1/DTD/svg11.dtd">
<svg version="1.1" id="Layer_1" xmlns="http://www.w3.org/2000/svg" xmlns:xlink="http://www.w3.org/1999/xlink" x="0px" y="0px"
	 width="132px" height="132px" viewBox="-36.5 63.5 132 132" enable-background="new -36.5 63.5 132 132" xml:space="preserve">
<path fill="#DFDFDF" d="M94,129.5c0,35.609-28.869,64.5-64.5,64.5C-6.13,194-35,165.109-35,129.5S-6.13,65,29.5,65
	C65.131,65,94,93.891,94,129.5z"/>
<g>
	<g>
		<g>
			<path fill="#FFFFFF" d="M29.196,132.744c0.089,0,0.178,0,0.277,0c0.034,0,0.068,0,0.101,0c0.052,0,0.124,0,0.177,0
				c5.057-0.087,9.148-1.858,12.171-5.271c6.65-7.485,5.543-20.331,5.421-21.557c-0.429-9.212-4.781-13.605-8.373-15.661
				c-2.676-1.539-5.801-2.373-9.286-2.442h-0.121c-0.017,0-0.052,0-0.067,0h-0.102c-1.919,0-5.683,0.313-9.29,2.372
				c-3.623,2.052-8.048,6.454-8.476,15.729c-0.119,1.22-1.231,14.07,5.42,21.56C20.046,130.886,24.137,132.661,29.196,132.744z
				 M16.231,106.344c0-0.049,0.017-0.09,0.017-0.132c0.573-12.373,9.358-13.713,13.121-13.713h0.071c0.033,0,0.085,0,0.134,0
				c4.668,0.103,12.588,2.005,13.13,13.713c0,0.054,0,0.099,0.009,0.132c0.021,0.119,1.229,11.859-4.265,18.046
				c-2.175,2.451-5.071,3.654-8.89,3.691c-0.033,0-0.051,0-0.085,0l0,0c-0.033,0-0.049,0-0.084,0c-3.8-0.037-6.719-1.24-8.873-3.691
				C15.042,118.236,16.215,106.446,16.231,106.344z"/>
			<path fill="#FFFFFF" d="M64.956,154.054c0-0.017,0-0.041,0-0.058c0-0.141-0.022-0.271-0.022-0.437
				c-0.104-3.42-0.327-11.411-7.82-13.964c-0.051-0.021-0.118-0.037-0.173-0.053c-7.792-1.994-14.265-6.471-14.332-6.532
				c-1.053-0.74-2.503-0.473-3.246,0.579c-0.741,1.053-0.484,2.5,0.572,3.243c0.296,0.211,7.164,4.995,15.765,7.199
				c4.023,1.429,4.474,5.734,4.587,9.676c0,0.147,0,0.288,0.019,0.436c0.017,1.546-0.085,3.946-0.357,5.34
				c-2.799,1.579-13.761,7.075-30.439,7.075c-16.605,0-27.639-5.513-30.451-7.099c-0.278-1.382-0.395-3.778-0.362-5.332
				c0-0.14,0.017-0.28,0.017-0.437c0.123-3.946,0.573-8.246,4.593-9.677c8.6-2.212,15.468-7.004,15.762-7.193
				c1.053-0.748,1.314-2.195,0.569-3.248c-0.746-1.06-2.192-1.315-3.245-0.574c-0.067,0.057-6.511,4.538-14.334,6.527
				c-0.065,0.017-0.117,0.032-0.176,0.049c-7.488,2.573-7.716,10.578-7.817,13.961c0,0.163,0,0.3-0.021,0.439
				c0,0.016,0,0.033,0,0.054c-0.017,0.896-0.033,5.509,0.88,7.81c0.172,0.448,0.489,0.839,0.9,1.099
				c0.514,0.341,12.924,8.25,33.693,8.25c20.778,0,33.183-7.934,33.7-8.25c0.399-0.26,0.724-0.638,0.899-1.099
				C64.985,159.554,64.973,154.942,64.956,154.054z"/>
		</g>
	</g>
</g>
</svg>
